<svg width="57" height="18" viewBox="0 0 57 18" fill="none" xmlns="http://www.w3.org/2000/svg">
<path d="M12.7969 16.1602V18H1.24219V16.1602H12.7969ZM12.4219 2.57812L1.78125 18H0.386719V16.3125L11.0156 0.9375H12.4219V2.57812ZM11.4609 0.9375V2.78906H0.539062V0.9375H11.4609ZM22.2188 2.44922L16.5703 18H14.2617L20.7656 0.9375H22.2539L22.2188 2.44922ZM26.9531 18L21.293 2.44922L21.2578 0.9375H22.7461L29.2734 18H26.9531ZM26.6602 11.6836V13.5352H17.0742V11.6836H26.6602ZM31.5586 0.9375H37.207C38.4883 0.9375 39.5703 1.13281 40.4531 1.52344C41.3438 1.91406 42.0195 2.49219 42.4805 3.25781C42.9492 4.01562 43.1836 4.94922 43.1836 6.05859C43.1836 6.83984 43.0234 7.55469 42.7031 8.20312C42.3906 8.84375 41.9375 9.39062 41.3438 9.84375C40.7578 10.2891 40.0547 10.6211 39.2344 10.8398L38.6016 11.0859H33.293L33.2695 9.24609H37.2773C38.0898 9.24609 38.7656 9.10547 39.3047 8.82422C39.8438 8.53516 40.25 8.14844 40.5234 7.66406C40.7969 7.17969 40.9336 6.64453 40.9336 6.05859C40.9336 5.40234 40.8047 4.82812 40.5469 4.33594C40.2891 3.84375 39.8828 3.46484 39.3281 3.19922C38.7812 2.92578 38.0742 2.78906 37.207 2.78906H33.8203V18H31.5586V0.9375ZM41.5312 18L37.3828 10.2656L39.7383 10.2539L43.9453 17.8594V18H41.5312ZM48.6094 0.9375V18H46.3477V0.9375H48.6094ZM55.7578 8.61328V10.4648H48.1172V8.61328H55.7578ZM56.918 0.9375V2.78906H48.1172V0.9375H56.918Z" fill="white"/>
</svg>
